<svg xmlns="http://www.w3.org/2000/svg" width="24" height="15" aria-hidden="true" style="width:24px;height:15px;display:block;transform:scale(1,1);transition-property:none"><defs><linearGradient id="CerosGradient_id6f0e9136a" x1="50%" x2="50%" y1="100%" y2="0%" class="cerosgradient" data-cerosgradient="true" gradientUnits="userSpaceOnUse"><stop offset="0%" stop-color="#d1d1d1" style="stop-color:#5dc6d0;transition-property:none"/><stop offset="100%" stop-color="#d1d1d1" style="stop-color:#5dc6d0;transition-property:none"/><animate fill="freeze" attributeName="x1" begin="1639.3843994140625s" calcMode="spline" dur="0.033447265625s" keySplines="0.125 0.05 0.1875 0.3;0.4375 0.775 0.625 1" keyTimes="0;0.5;1" values="50%;50%;50%"/><animate fill="freeze" attributeName="y1" begin="1639.3843994140625s" calcMode="spline" dur="0.033447265625s" keySplines="0.125 0.05 0.1875 0.3;0.4375 0.775 0.625 1" keyTimes="0;0.5;1" values="100%;100%;100%"/><animate fill="freeze" attributeName="x2" begin="1639.3843994140625s" calcMode="spline" dur="0.033447265625s" keySplines="0.125 0.05 0.1875 0.3;0.4375 0.775 0.625 1" keyTimes="0;0.5;1" values="50%;50%;50%"/><animate fill="freeze" attributeName="y2" begin="1639.3843994140625s" calcMode="spline" dur="0.033447265625s" keySplines="0.125 0.05 0.1875 0.3;0.4375 0.775 0.625 1" keyTimes="0;0.5;1" values="0%;0%;0%"/></linearGradient><style>.cls-1-60e4b032cda76{fill:#d8d8d8;fill-rule:evenodd}</style></defs><g id="Layer_260e4b032cda76" data-name="Layer 2"><g id="Layer_1-260e4b032cda76" data-name="Layer 1"><path d="M10.54 0h-1.2C8.12 1.77 6.93 3.56 5.78 5.35v.07a1.74 1.74 0 0 0-.11.18l-.09.14-.2.32v.07L5 6.54c-.13.19-.25.39-.37.58l-.15.25a1.74 1.74 0 0 1-.11.18l-.17.28-.1.15-.1.25C2.59 10.48 1.25 12.76 0 15h1.2c1.21-1.76 2.41-3.56 3.56-5.35v-.07l.08-.12.16-.24.16-.22v-.07l.14-.13.21-.34c.12-.2.25-.39.37-.58l.15-.24.12-.2a2.61 2.61 0 0 0 .17-.28l.1-.16.06-.1c1.38-2.25 2.72-4.53 4-6.77M13.47 9.52v-.06l.13-.2.19-.26v-.07l.1-.14.21-.34.36-.58.15-.24.12-.2a2.61 2.61 0 0 0 .27-.36l.1-.16.06-.1c1.38-2.25 2.72-4.53 4-6.77H18c-1.22 1.77-2.42 3.56-3.56 5.35v.07l-.12.18-.08.14c-.07.11-.14.21-.2.32l-.05.07-.21.34c-.13.19-.25.39-.37.58l-.15.25a1.74 1.74 0 0 1-.11.18 2.61 2.61 0 0 0-.17.28l-.1.15M10.59 11.59c-.67 1.14-1.33 2.28-2 3.41h1.2l1.53-2.25M9.14 4.65l.45.7v.07l.08.12.12.2L10 6v.07l.09.14a4 4 0 0 0 .22.34l.36.58.15.24.12.2.17.28.1.16.06.1c1.39 2.25 2.73 4.53 4 6.77h-1.2a198.06 198.06 0 0 1-3.55-5.35v-.07l-.11-.18-.09-.14c-.06-.11-.13-.21-.2-.32v-.07l-.22-.34-.4-.53-.15-.25-.12-.18L9 7.06l-.1-.15-.06-.09L8.33 6M6.38 2.71C5.85 1.8 5.34.9 4.83 0H6c.37.53.73 1.06 1.09 1.6M17.76 4.65c.16.23.31.47.46.7v.07l.08.12.12.2.14.21v.07l.09.14.21.34c.13.19.25.39.37.58l.15.24.12.2.17.28.1.16.06.1c1.39 2.25 2.72 4.53 4 6.77H22.8c-1.22-1.77-2.41-3.56-3.56-5.35v-.07l-.11-.18-.13.03c-.06-.11-.13-.21-.2-.32l-.1-.14-.21-.34c-.12-.19-.24-.39-.37-.58l-.15-.25-.12-.18-.17-.28-.09-.15v-.09L17 6M15 2.71C14.48 1.8 14 .9 13.46 0h1.2c.37.53.73 1.06 1.09 1.6" class="cls-1-60e4b032cda76" style="transition-property:none"/></g></g></svg>