<svg xmlns="http://www.w3.org/2000/svg" width="24" height="15" aria-hidden="true" style="width:24px;height:15px;display:block;transform:scale(1,1);transition-property:none"><defs><linearGradient id="CerosGradient_id46aa33338" x1="50%" x2="50%" y1="100%" y2="0%" class="cerosgradient" data-cerosgradient="true" gradientUnits="userSpaceOnUse"><stop offset="0%" stop-color="#d1d1d1" style="stop-color:#24b368;transition-property:none"/><stop offset="100%" stop-color="#d1d1d1" style="stop-color:#24b368;transition-property:none"/><animate fill="freeze" attributeName="x1" begin="1765.1729736328125s" calcMode="spline" dur="0s" keySplines="0.125 0.05 0.1875 0.3;0.4375 0.775 0.625 1" keyTimes="0;0.5;1" values="50%;50%;50%"/><animate fill="freeze" attributeName="y1" begin="1765.1729736328125s" calcMode="spline" dur="0s" keySplines="0.125 0.05 0.1875 0.3;0.4375 0.775 0.625 1" keyTimes="0;0.5;1" values="100%;100%;100%"/><animate fill="freeze" attributeName="x2" begin="1765.1729736328125s" calcMode="spline" dur="0s" keySplines="0.125 0.05 0.1875 0.3;0.4375 0.775 0.625 1" keyTimes="0;0.5;1" values="50%;50%;50%"/><animate fill="freeze" attributeName="y2" begin="1765.1729736328125s" calcMode="spline" dur="0s" keySplines="0.125 0.05 0.1875 0.3;0.4375 0.775 0.625 1" keyTimes="0;0.5;1" values="0%;0%;0%"/></linearGradient><style>.cls-1-60e4b032cda77{fill:#d8d8d8;fill-rule:evenodd}</style></defs><g id="Layer_260e4b032cda77" data-name="Layer 2"><g id="Layer_1-260e4b032cda77" data-name="Layer 1"><path d="M24 0h-1.2c-1.21 1.76-2.41 3.56-3.56 5.35v.07l-.08.12-.13.2-.19.26-.05.07-.09.14-.21.34c-.12.2-.25.39-.37.58l-.15.24-.12.2a2.61 2.61 0 0 0-.17.28l-.1.16-.06.1c-1.38 2.25-2.72 4.53-4 6.77h1.2c1.22-1.77 2.41-3.56 3.56-5.35v-.07a1.74 1.74 0 0 0 .11-.18l.09-.14.2-.32.05-.07.27-.29.37-.58.15-.25a1.74 1.74 0 0 1 .11-.18l.17-.28.1-.15.1-.25c1.41-2.25 2.75-4.53 4-6.77M10.49 5.54l-.13.2-.15.26v.07l-.1.14-.21.34c-.12.2-.24.39-.37.58l-.15.24-.12.2-.26.36-.1.16-.06.1c-1.38 2.25-2.72 4.53-4 6.77H6c1.22-1.77 2.42-3.56 3.56-5.35v-.07l.12-.18.08-.14c.07-.11.14-.21.2-.32l.05-.07.21-.34c.13-.19.25-.39.37-.58l.15-.25a1.74 1.74 0 0 1 .26-.3 2.61 2.61 0 0 0 .17-.28l.1-.15-.83-1.35v.06M15.37 0h-1.2l-1.53 2.25.77 1.16c.67-1.14 1.33-2.28 2-3.41M13.87 8.8l.09.14L14 9l.14.21.12.2.08.12v.07l.45.7.88-1.3-.48-.79-.06-.09-.13-.18-.17-.28-.12-.18-.15-.25-.36-.58-.22-.34v-.07c-.07-.11-.14-.21-.2-.32l-.09-.14-.11-.18v-.07C12.24 3.56 11 1.77 9.83 0h-1.2c1.25 2.24 2.59 4.52 4 6.77l.06.1.1.17c.06.09.12.18.17.27l.12.2.15.24.36.58a4 4 0 0 1 .22.34M16.88 13.4c.36.54.72 1.07 1.09 1.6h1.2c-.51-.9-1-1.8-1.55-2.71ZM5.24 8.8l.09.14v.07l.14.21.12.2.08.12v.07c.15.23.3.47.46.7L7 9l-.48-.79v-.09l-.09-.15-.17-.28-.12-.18-.15-.25c-.13-.19-.25-.39-.37-.58L5.3 6.2v-.07c-.07-.11-.14-.21-.2-.32l-.19-.21-.11-.18v-.07C3.61 3.56 2.42 1.77 1.2 0H0c1.26 2.24 2.59 4.52 4 6.77l.06.1.11.17.16.27.12.2.15.24.4.71.21.34M8.25 13.4c.36.54.72 1.07 1.09 1.6h1.2c-.51-.9-1-1.8-1.55-2.71Z" class="cls-1-60e4b032cda77" style="transition-property:none"/></g></g></svg>