<svg xmlns="http://www.w3.org/2000/svg" width="22" height="15" aria-hidden="true" style="width:22px;height:15px;display:block;transform:scale(1,1);transition-property:none" viewBox="0 0 21 15"><defs><linearGradient id="CerosGradient_idc382c80fb" x1="50%" x2="50%" y1="100%" y2="0%" class="cerosgradient" data-cerosgradient="true" gradientUnits="userSpaceOnUse"><stop offset="0%" stop-color="#d1d1d1" style="stop-color:#295daa;transition-property:none"/><stop offset="100%" stop-color="#d1d1d1" style="stop-color:#295daa;transition-property:none"/><animate fill="freeze" attributeName="x1" begin="2564.839111328125s" calcMode="spline" dur="0s" keySplines="0.125 0.05 0.1875 0.3;0.4375 0.775 0.625 1" keyTimes="0;0.5;1" values="50%;50%;50%"/><animate fill="freeze" attributeName="y1" begin="2564.839111328125s" calcMode="spline" dur="0s" keySplines="0.125 0.05 0.1875 0.3;0.4375 0.775 0.625 1" keyTimes="0;0.5;1" values="100%;100%;100%"/><animate fill="freeze" attributeName="x2" begin="2564.839111328125s" calcMode="spline" dur="0s" keySplines="0.125 0.05 0.1875 0.3;0.4375 0.775 0.625 1" keyTimes="0;0.5;1" values="50%;50%;50%"/><animate fill="freeze" attributeName="y2" begin="2564.839111328125s" calcMode="spline" dur="0s" keySplines="0.125 0.05 0.1875 0.3;0.4375 0.775 0.625 1" keyTimes="0;0.5;1" values="0%;0%;0%"/></linearGradient><style>.cls-1-60e4b032cda7b,.cls-2-60e4b032cda7b{fill:#d8d8d8}.cls-1-60e4b032cda7b{fill-rule:evenodd}</style></defs><g id="Layer_260e4b032cda7b" data-name="Layer 2"><g id="Layer_1-260e4b032cda7b" data-name="Layer 1"><path d="m21 5.09-.64 1c-1.56.08-3.13.14-4.69.17.28-.44.56-.88.83-1.33 1.51 0 3 .08 4.5.14M.64 8.89c1.56-.08 3.13-.14 4.69-.17-.28.44-.56.88-.83 1.33C3 10 1.48 10 0 9.91Z" class="cls-1-60e4b032cda7b" style="transition-property:none"/><path d="m18.63 8.84-.64 1c-2.18.11-4.38.18-6.54.21h-2.7l.3-.44a.43.43 0 0 1 0-.07l.08-.12.12-.2.21-.22v-.07l.1-.14.09-.14h1c2.69 0 5.38.07 8 .18" class="cls-2-60e4b032cda7b" style="transition-property:none"/><path d="M13.62 0c-.68 1.2-1.39 2.42-2.12 3.63H9.9c.82-1.22 1.66-2.44 2.5-3.65Z" class="cls-1-60e4b032cda7b" style="transition-property:none"/><path d="M10.63 11.36h.47c-.82 1.22-1.66 2.44-2.5 3.65H7.38c.68-1.2 1.39-2.41 2.12-3.63h1.13M18.11 0c-1.28 2.24-2.64 4.52-4 6.77l-.06.1-.1.17-.17.27H12l.1-.17c.12-.19.24-.39.37-.58l.22-.34v-.07c.06-.11.13-.21.2-.32l.09-.13.11-.18v-.07c1.34-1.88 2.56-3.68 3.8-5.45Z" class="cls-2-60e4b032cda7b" style="transition-property:none"/><path d="M8.62 7.62H9l-.1.16c-.12.19-.24.39-.37.58l-.22.34-.09.14a.43.43 0 0 0 0 .07L8 9.22l-.13.2a.83.83 0 0 0-.08.12v.07C6.57 11.44 5.35 13.23 4.11 15H2.89c1.28-2.24 2.64-4.52 4.05-6.77L7 8.14l.09-.15.18-.28h1.35" class="cls-1-60e4b032cda7b" style="transition-property:none"/><path d="m1.75 4.84.65 1c2.18.16 4.38.16 6.54.23h2.69c-.09-.15-.19-.3-.29-.44a.43.43 0 0 0 0-.07l-.08-.12-.12-.2-.21-.24v-.07l-.1-.14-.09-.14h-.99c-2.69 0-5.38.07-8 .18" class="cls-2-60e4b032cda7b" style="transition-property:none"/></g></g></svg>