<svg xmlns="http://www.w3.org/2000/svg" width="22" height="25" aria-hidden="true" style="width:22px;height:25px;display:block;transform:scale(1,1);transition-property:none" viewBox="0 0 13 15"><defs><linearGradient id="CerosGradient_id257e7ae98" x1="50%" x2="50%" y1="100%" y2="0%" class="cerosgradient" data-cerosgradient="true" gradientUnits="userSpaceOnUse"><stop offset="0%" stop-color="#d1d1d1" style="stop-color:#e8d21a;transition-property:none"/><stop offset="100%" stop-color="#d1d1d1" style="stop-color:#e8d21a;transition-property:none"/><animate fill="freeze" attributeName="x1" begin="2270.5439453125s" calcMode="spline" dur="0s" keySplines="0.125 0.05 0.1875 0.3;0.4375 0.775 0.625 1" keyTimes="0;0.5;1" values="50%;50%;50%"/><animate fill="freeze" attributeName="y1" begin="2270.5439453125s" calcMode="spline" dur="0s" keySplines="0.125 0.05 0.1875 0.3;0.4375 0.775 0.625 1" keyTimes="0;0.5;1" values="100%;100%;100%"/><animate fill="freeze" attributeName="x2" begin="2270.5439453125s" calcMode="spline" dur="0s" keySplines="0.125 0.05 0.1875 0.3;0.4375 0.775 0.625 1" keyTimes="0;0.5;1" values="50%;50%;50%"/><animate fill="freeze" attributeName="y2" begin="2270.5439453125s" calcMode="spline" dur="0s" keySplines="0.125 0.05 0.1875 0.3;0.4375 0.775 0.625 1" keyTimes="0;0.5;1" values="0%;0%;0%"/></linearGradient><style>.cls-1-60e4b032cda79{fill:#d8d8d8;fill-rule:evenodd}</style></defs><g id="Layer_260e4b032cda79" data-name="Layer 2"><g id="Layer_1-260e4b032cda79" data-name="Layer 1"><path d="m9.15 9.89-.55.9-.65 1L7.22 13l-.62.95L5.88 15H4.72C3.55 13.23 2.4 11.44 1.3 9.65a.43.43 0 0 0 0-.07l-.15-.18s0-.09-.08-.14l-.24-.39-.2-.34-.41-.65c-.1-.17-.15-.25-.22-.33l.14-.24.36-.58.2-.34.3-.58s.05-.1.08-.14l.11-.18v-.07C2.4 3.56 3.55 1.77 4.72 0h1.16l.72 1.09-.69 1.07-.61-1.11C4.26 3 3.17 4.87 2.05 6.77L2 6.91l-.1.16-.16.28-.09.15.09.15c.05.09.1.18.16.27l.1.17.06.1c1.11 1.94 2.2 3.86 3.24 5.81l.61-1.11c.19-.34.38-.68.58-1s.51-.89.73-1.36l.61-1.06.54-.93Z" class="cls-1-60e4b032cda79" style="transition-property:none"/><path d="m9.15 5.11-.78 1.35-.54-.93.76-1.32c.19.3.38.6.56.9" class="cls-1-60e4b032cda79" style="transition-property:none"/><path d="m13 5.14-.78 1.34a1 1 0 0 1-.1-.17c-.45-.77-.9-1.54-1.34-2.31-.56-1-1.1-2-1.64-2.93l-.6 1.1c-.19.35-.39.69-.58 1l-.74 1.3-.69 1.18c-.21.38-.43.75-.65 1.12l-.06.1-.1.16c0 .1-.11.19-.16.28l-.09.15.09.15.16.27.1.17.06.1.72 1.31-.76 1.33-.71-1.14a.43.43 0 0 0 0-.07L5 9.4s-.05-.09-.08-.14l-.19-.32a3.79 3.79 0 0 0-.2-.34l-.35-.58H4c0-.08-.1-.16-.14-.24 0-.08.09-.16.14-.24l.35-.58a3.79 3.79 0 0 0 .2-.34l.19-.32s0-.1.08-.14l.11-.18v-.07l.68-1.09c.22-.36.45-.72.68-1.08S7 2.42 7.22 2s.41-.64.62-.95.47-.69.71-1.05h1.17c1.12 1.69 2.22 3.42 3.28 5.14M13 9.86c-1.06 1.72-2.16 3.45-3.28 5.14H8.55l-.72-1.09.69-1.06.61 1.15c.54-1 1.08-2 1.64-3 .44-.77.89-1.54 1.34-2.31a1 1 0 0 1 .1-.17Z" class="cls-1-60e4b032cda79" style="transition-property:none"/></g></g></svg>