<svg xmlns="http://www.w3.org/2000/svg" width="20" height="15" aria-hidden="true" style="width:20px;height:15px;display:block;transform:scale(1,1);transition-property:none" viewBox="0 0 20 14.7"><defs><linearGradient id="CerosGradient_ide12627a69" x1="50%" x2="50%" y1="100%" y2="0%" class="cerosgradient" data-cerosgradient="true" gradientUnits="userSpaceOnUse"><stop offset="0%" stop-color="#d1d1d1" style="stop-color:#f7961d;transition-property:none"/><stop offset="100%" stop-color="#d1d1d1" style="stop-color:#f7961d;transition-property:none"/><animate fill="freeze" attributeName="x1" begin="2413.749755859375s" calcMode="spline" dur="0.016845703125s" keySplines="0.125 0.05 0.1875 0.3;0.4375 0.775 0.625 1" keyTimes="0;0.5;1" values="50%;50%;50%"/><animate fill="freeze" attributeName="y1" begin="2413.749755859375s" calcMode="spline" dur="0.016845703125s" keySplines="0.125 0.05 0.1875 0.3;0.4375 0.775 0.625 1" keyTimes="0;0.5;1" values="100%;100%;100%"/><animate fill="freeze" attributeName="x2" begin="2413.749755859375s" calcMode="spline" dur="0.016845703125s" keySplines="0.125 0.05 0.1875 0.3;0.4375 0.775 0.625 1" keyTimes="0;0.5;1" values="50%;50%;50%"/><animate fill="freeze" attributeName="y2" begin="2413.749755859375s" calcMode="spline" dur="0.016845703125s" keySplines="0.125 0.05 0.1875 0.3;0.4375 0.775 0.625 1" keyTimes="0;0.5;1" values="0%;0%;0%"/></linearGradient><style>.cls-1-60e4b032cda7a{fill:#d8d8d8;fill-rule:evenodd}</style></defs><g id="Layer_260e4b032cda7a" data-name="Layer 2"><g id="Layer_1-260e4b032cda7a" data-name="Layer 1"><path d="M20 14.7h-1.25C17.48 13 16.23 11.21 15 9.45v-.07a1 1 0 0 0-.08-.11L14.76 9l-.15-.21v-.06l-.1-.14c-.07-.11-.15-.22-.22-.34s-.26-.37-.38-.56l-.16-.24-.12-.19-.18-.27-.11-.16-.06-.1C11.71 4.43 10.31 2.2 9 0h1.26c1.27 1.73 2.51 3.49 3.74 5.24v.07l.12.17.09.14.21.32v.07l.22.33.39.57V7l.15.23.12.19.18.28.1.15.06.08c1.44 2.21 2.84 4.44 4.15 6.64M5.91 9.27c0-.06-.09-.12-.13-.19l-.14-.21-.05-.06-.09-.14-.23-.34-.38-.56-.15-.24-.22-.33c-.06-.09-.12-.18-.17-.27l-.11-.16-.06-.1A180.64 180.64 0 0 1 0 0h1.25C2.52 1.73 3.77 3.49 5 5.24v.07l.12.17.09.14.27.38v.07l.22.33.43.6.16.23.12.19.18.28.1.15L6 9.32v-.05M11 14.7H9.75l-1.6-2.21.85-1.14c.7 1.12 1.39 2.24 2.05 3.35M9.43 6.08l.09-.14.05-.07.14-.21.13-.19.16-.16a.43.43 0 0 0 0-.07l.48-.69.84 1.31-.51.78a.56.56 0 0 0-.05.08l-.1.15-.18.27-.12.18-.16.24c-.12.19-.25.38-.38.57l-.22.33-.05.07-.32.47v.05l-.09.13-.14.2-.05.07C7.73 11.2 6.48 13 5.21 14.7H4c1.31-2.2 2.71-4.43 4.15-6.64l.06-.09.11-.17c0-.09.11-.17.17-.26l.13-.2.15-.23v-.05l.38-.57.23-.33M12.57 1.57c.37-.53.75-1 1.13-1.57H15c-.53.88-1.07 1.76-1.62 2.65Z" class="cls-1-60e4b032cda7a" style="transition-property:none"/></g></g></svg>