<svg xmlns="http://www.w3.org/2000/svg" width="16" height="18" aria-labelledby="titleidb067c91eb" style="fill:url(#CerosGradient_id443ad1f7b);width:16px;height:18px;display:block;transform:scale(1,1);transition-property:none" viewBox="0 0 14 16"><defs><clipPath id="clip-path60e4b032cda75"><path d="m8 10.9-.12-.19-.15-.27-.1-.17-.18-.27c-.14-.24-.28-.48-.43-.72L6.86 9l-.1-.16-.15-.25-.05-.09-.62 1-.11.19-.06.08.11.17.15.24.12.19.18.28.1.15.17.28.4.62.15.24.11.17.15.23.12.18c.56.86 1.1 1.67 1.62 2.45h1.17c-.7-1.29-1.43-2.59-2.17-3.86L8 10.9" class="cls-1-60e4b032cda75" style="fill:url(#CerosGradient_id443ad1f7b);transition-property:none"/></clipPath><clipPath id="clip-path-260e4b032cda75"><path d="M5 8h6v7H5z" class="cls-2-60e4b032cda75" style="fill:url(#CerosGradient_id443ad1f7b);transition-property:none"/></clipPath><clipPath id="clip-path-360e4b032cda75"><path d="m6.24 12.46-.48-.74-.08-.13v-.05C5 12.68 4.34 13.84 3.71 15h1.17l1.52-2.29-.15-.24" class="cls-1-60e4b032cda75" style="fill:url(#CerosGradient_id443ad1f7b);transition-property:none"/></clipPath><clipPath id="clip-path-460e4b032cda75"><path d="M3 11h4v4H3z" class="cls-2-60e4b032cda75" style="fill:url(#CerosGradient_id443ad1f7b);transition-property:none"/></clipPath><linearGradient id="CerosGradient_id443ad1f7b" x1="50%" x2="50%" y1="100%" y2="0%" class="cerosgradient" data-cerosgradient="true" gradientUnits="userSpaceOnUse"><stop offset="0%" stop-color="#D8D8D8" style="stop-color:#d8d8d8;transition-property:none"/><stop offset="100%" stop-color="#D8D8D8" style="stop-color:#d8d8d8;transition-property:none"/><animate fill="freeze" attributeName="x1" begin="1436.7926025390625s" calcMode="spline" dur="0.033203125s" keySplines="0.125 0.05 0.1875 0.3;0.4375 0.775 0.625 1" keyTimes="0;0.5;1" values="50%;50%;50%"/><animate fill="freeze" attributeName="y1" begin="1436.7926025390625s" calcMode="spline" dur="0.033203125s" keySplines="0.125 0.05 0.1875 0.3;0.4375 0.775 0.625 1" keyTimes="0;0.5;1" values="100%;100%;100%"/><animate fill="freeze" attributeName="x2" begin="1436.7926025390625s" calcMode="spline" dur="0.033203125s" keySplines="0.125 0.05 0.1875 0.3;0.4375 0.775 0.625 1" keyTimes="0;0.5;1" values="50%;50%;50%"/><animate fill="freeze" attributeName="y2" begin="1436.7926025390625s" calcMode="spline" dur="0.033203125s" keySplines="0.125 0.05 0.1875 0.3;0.4375 0.775 0.625 1" keyTimes="0;0.5;1" values="0%;0%;0%"/></linearGradient><style>.cls-1-60e4b032cda75,.cls-2-60e4b032cda75,.cls-3-60e4b032cda75{fill:#d8d8d8}.cls-1-60e4b032cda75{clip-rule:evenodd}.cls-3-60e4b032cda75{fill-rule:evenodd}</style></defs><g id="Layer_260e4b032cda75" data-name="Layer 2"><g id="Layer_1-260e4b032cda75" data-name="Layer 1"><path d="m8 10.9-.12-.19-.15-.27-.1-.17-.18-.27c-.14-.24-.28-.48-.43-.72L6.86 9l-.1-.16-.15-.25-.05-.09-.62 1-.11.19-.06.08.11.17.15.24.12.19.18.28.1.15.17.28.4.62.15.24.11.17.15.23.12.18c.56.86 1.1 1.67 1.62 2.45h1.17c-.7-1.29-1.43-2.59-2.17-3.86L8 10.9" class="cls-3-60e4b032cda75" style="fill:url(#CerosGradient_id443ad1f7b);transition-property:none"/><g style="clip-path:url(#clip-path60e4b032cda75)"><path d="M5 8h6v7H5z" class="cls-2-60e4b032cda75" style="fill:url(#CerosGradient_id443ad1f7b);transition-property:none"/><g style="clip-path:url(#clip-path-260e4b032cda75)"><path d="M4.74 7.48h6.55V16H4.74z" class="cls-2-60e4b032cda75" style="fill:url(#CerosGradient_id443ad1f7b);transition-property:none"/></g></g><path d="m10.24 8.53-.62 1a1.74 1.74 0 0 0-.11.18l-.06.09c1.09 1.74 2.23 3.48 3.38 5.2H14c-1.18-2.16-2.43-4.34-3.73-6.52M3.76 6.47l.62-1a1.74 1.74 0 0 0 .11-.18l.06-.09C3.46 3.46 2.33 1.72 1.17 0H0c1.18 2.16 2.43 4.34 3.73 6.52M4.79 9.42l.12-.2.17-.22.09-.15.21-.34.36-.58.14-.24.12-.2c.06-.09.11-.18.16-.27l.1-.17.06-.1a2.26 2.26 0 0 1-.16-.26l-.59-1-.1.18-.12.18-.21.35v.07l-.21.34-.36.58-.15.25-.12.19c-.05.1-.11.19-.17.29L4 8.09c-1.41 2.3-2.75 4.62-4 6.91h1.17c1.19-1.76 2.36-3.56 3.48-5.35a1.76 1.76 0 0 1 .14-.23M6 4.1l.12.19.15.27.1.17.18.27c.14.24.28.48.43.72l.16.28.1.16.15.25.05.09.62-1 .11-.19.06-.08L8.15 5 8 4.79l-.12-.19-.18-.28-.1-.15-.18-.3-.42-.6c0-.09-.11-.17-.16-.25l-.1-.16-.15-.23-.09-.18C5.94 1.59 5.4.78 4.88 0H3.71c.7 1.29 1.43 2.59 2.17 3.86L6 4.1M9.21 5.59l-.12.19-.24.39-.21.34-.36.58-.14.25-.12.19-.17.28-.09.16v.14a2.26 2.26 0 0 1 .16.26l.6 1 .1-.18.12-.18.17-.28.09-.14.21-.34.36-.58.15-.24.12-.2c.05-.09.11-.18.16-.28l.1-.16c1.38-2.3 2.72-4.62 4-6.91h-1.27c-1.19 1.77-2.36 3.56-3.48 5.35 0 .08-.09.16-.14.24M6.24 12.46l-.48-.74-.08-.13v-.05C5 12.68 4.34 13.84 3.71 15h1.17l1.52-2.29-.15-.24" class="cls-3-60e4b032cda75" style="fill:url(#CerosGradient_id443ad1f7b);transition-property:none"/><g style="clip-path:url(#clip-path-360e4b032cda75)"><path d="M3 11h4v4H3z" class="cls-2-60e4b032cda75" style="fill:url(#CerosGradient_id443ad1f7b);transition-property:none"/><g style="clip-path:url(#clip-path-460e4b032cda75)"><path d="M2.71 10.54H7.4V16H2.71z" class="cls-2-60e4b032cda75" style="fill:url(#CerosGradient_id443ad1f7b);transition-property:none"/></g></g><path d="m7.76 2.54.5.77.06.1C9 2.32 9.66 1.16 10.29 0H9.12L7.6 2.29l.15.23" class="cls-3-60e4b032cda75" style="fill:url(#CerosGradient_id443ad1f7b);transition-property:none"/></g></g></svg>