<svg xmlns="http://www.w3.org/2000/svg" width="20" height="19" aria-hidden="true" style="width:20px;height:19px;display:block;transform:scale(1,1);transition-property:none" viewBox="0 0 16.91 16"><defs><clipPath id="clip-path60e4b032cda78" transform="translate(0 1)"><path d="M8.35 1 8.22.75C8.06.5 7.89.25 7.72 0H6.54c.37.67.74 1.34 1.12 2l.69-1" class="cls-1-60e4b032cda78" style="transition-property:none"/></clipPath><clipPath id="clip-path-260e4b032cda78" transform="translate(0 1)"><path d="M6 0h3v3H6z" class="cls-2-60e4b032cda78" style="transition-property:none"/></clipPath><clipPath id="clip-path-360e4b032cda78" transform="translate(0 1)"><path d="m6.87 7.88.14-.25.12-.19v-.08l.12-.19.1-.17.06-.1.75-1.24L9 4.32l.07-.11c.19-.33.38-.65.56-1A1.18 1.18 0 0 0 9.74 3l.59-1c.16-.27.31-.53.45-.8l.68-1.2h-1.18l-.51.76c0 .06-.09.13-.14.2L9 1.91a.61.61 0 0 1-.07.1L8.29 3c-.26.39-.51.78-.76 1.17l-.75 1.18v.07a1.74 1.74 0 0 1-.11.18l-.08.13-.2.32v.07L6 6.54l-.37.58c0 .06-.07.11-.1.16a.56.56 0 0 1 0 .08l-.11.19-.17.28h1.68" class="cls-1-60e4b032cda78" style="transition-property:none"/></clipPath><clipPath id="clip-path-460e4b032cda78" transform="translate(0 1)"><path d="M5 0h7v8H5z" class="cls-2-60e4b032cda78" style="transition-property:none"/></clipPath><linearGradient id="CerosGradient_id1711b67d6" x1="50%" x2="50%" y1="100%" y2="0%" class="cerosgradient" data-cerosgradient="true" gradientUnits="userSpaceOnUse"><stop offset="0%" stop-color="#d1d1d1" style="stop-color:#ec165b;transition-property:none"/><stop offset="100%" stop-color="#d1d1d1" style="stop-color:#ec165b;transition-property:none"/><animate fill="freeze" attributeName="x1" begin="1920.595947265625s" calcMode="spline" dur="0.0333251953125s" keySplines="0.125 0.05 0.1875 0.3;0.4375 0.775 0.625 1" keyTimes="0;0.5;1" values="50%;50%;50%"/><animate fill="freeze" attributeName="y1" begin="1920.595947265625s" calcMode="spline" dur="0.0333251953125s" keySplines="0.125 0.05 0.1875 0.3;0.4375 0.775 0.625 1" keyTimes="0;0.5;1" values="100%;100%;100%"/><animate fill="freeze" attributeName="x2" begin="1920.595947265625s" calcMode="spline" dur="0.0333251953125s" keySplines="0.125 0.05 0.1875 0.3;0.4375 0.775 0.625 1" keyTimes="0;0.5;1" values="50%;50%;50%"/><animate fill="freeze" attributeName="y2" begin="1920.595947265625s" calcMode="spline" dur="0.0333251953125s" keySplines="0.125 0.05 0.1875 0.3;0.4375 0.775 0.625 1" keyTimes="0;0.5;1" values="0%;0%;0%"/></linearGradient><style>.cls-1-60e4b032cda78,.cls-2-60e4b032cda78,.cls-3-60e4b032cda78{fill:#d8d8d8}.cls-1-60e4b032cda78{clip-rule:evenodd}.cls-3-60e4b032cda78{fill-rule:evenodd}</style></defs><g id="Layer_260e4b032cda78" data-name="Layer 2"><g id="Layer_1-260e4b032cda78" data-name="Layer 1"><path d="M1.09 15h1.18c.73-1.14 1.53-2.29 2.27-3.44H3.05c-.67 1.16-1.33 2.32-2 3.47M10.8 9.65a.43.43 0 0 0 0-.07l-.08-.12-.06-.09-.06-.11a1.74 1.74 0 0 1-.17-.26H4.47c-1 0-1.92.06-2.87.1h-1l-.62 1 1.59.06 2.1.07H11.28l-.17-.27-.34-.53M8.35 1 8.22.75C8.06.5 7.89.25 7.72 0H6.54c.37.67.74 1.34 1.12 2l.69-1" class="cls-3-60e4b032cda78" style="transition-property:none" transform="translate(0 1)"/><g style="clip-path:url(#clip-path60e4b032cda78)"><path d="M6 1h3v3H6z" class="cls-2-60e4b032cda78" style="transition-property:none"/><g style="clip-path:url(#clip-path-260e4b032cda78)"><path d="M5.54 0h3.83v4.01H5.54z" class="cls-2-60e4b032cda78" style="transition-property:none"/></g></g><path d="M14.92 11.48c-.21-.37-.43-.74-.65-1.11a1.09 1.09 0 0 0-.08-.15l-.57-1-.11-.19c-.17-.28-.34-.57-.52-.85a.41.41 0 0 0-.05-.09l-.09-.15-.17-.28-.11-.19-.15-.24c-.11-.19-.24-.39-.36-.58l-.21-.34v-.07l-.2-.32-.09-.13a1.74 1.74 0 0 0-.11-.18v-.07c-.25-.41-.51-.81-.78-1.22l-.14.25-.54.91a1.4 1.4 0 0 1-.1.16l.8 1.32.06.1.1.17.17.27.12.19a2 2 0 0 0 .14.25l.34.54.21.33.09.15a.43.43 0 0 1 0 .07v.05a1.4 1.4 0 0 1 .1.16l.06.09.06.11.08.12a.43.43 0 0 1 0 .07c.11.18.23.36.35.54l.14.23.71 1.11.75 1.14c.51.78 1 1.56 1.55 2.33h1.18l-.41-.75c-.52-.92-1-1.84-1.58-2.77M6.87 7.88l.14-.25.12-.19v-.08l.12-.19.1-.17.06-.1.75-1.24L9 4.32l.07-.11c.19-.33.38-.65.56-1A1.18 1.18 0 0 0 9.74 3l.59-1c.16-.27.31-.53.45-.8l.68-1.2h-1.18l-.51.76c0 .06-.09.13-.14.2L9 1.91a.61.61 0 0 1-.07.1L8.29 3c-.26.39-.51.78-.76 1.17l-.75 1.18v.07a1.74 1.74 0 0 1-.11.18l-.08.13-.2.32v.07L6 6.54l-.37.58c0 .06-.07.11-.1.16a.56.56 0 0 1 0 .08l-.11.19-.17.28h1.68" class="cls-3-60e4b032cda78" style="transition-property:none" transform="translate(0 1)"/><g style="clip-path:url(#clip-path-360e4b032cda78)"><path d="M5 1h7v8H5z" class="cls-2-60e4b032cda78" style="transition-property:none"/><g style="clip-path:url(#clip-path-460e4b032cda78)"><path d="M4.16 0h8.3v9.97h-8.3z" class="cls-2-60e4b032cda78" style="transition-property:none"/></g></g></g></g></svg>